# xmcd CD database file
#
# Track frame offsets:
#	150
#	45379
#	65855
#	94944
#	136394
#	165322
#
# Disc length: 2530 seconds
#
# Revision: 0
# Processed by: cddbd v1.4PL0 Copyright (c) Steve Scherf et al.
# Submitted via: CDex 1.50beta10
#
DISCID=4c09e006
DTITLE=Allan Holdsworth - Koala Takes the Foremost - Melbourne 1991 - D2
DYEAR=1991
DGENRE=Jazz
TTITLE0=Devil Takes The Hindmost
TTITLE1=House of Mirrors
TTITLE2=Gary Husband - Drums and Cymbals
TTITLE3=Pud Wud
TTITLE4=Non-Brewed Condiment
TTITLE5=Shallow Sea
EXTD=YEAR: 1991
EXTT0=
EXTT1=
EXTT2=
EXTT3=
EXTT4=
EXTT5=
PLAYORDER=
